<?xml version="1.0" encoding="utf-8"?>
<!-- Generator: Adobe Illustrator 16.0.4, SVG Export Plug-In . SVG Version: 6.00 Build 0)  -->
<!DOCTYPE svg PUBLIC "-//W3C//DTD SVG 1.1//EN" "http://www.w3.org/Graphics/SVG/1.1/DTD/svg11.dtd">
<svg version="1.1" id="Layer_1" xmlns="http://www.w3.org/2000/svg" xmlns:xlink="http://www.w3.org/1999/xlink" x="0px" y="0px"
	 width="56.693px" height="56.705px" viewBox="56.693 396.881 56.693 56.705" enable-background="new 56.693 396.881 56.693 56.705"
	 xml:space="preserve">
<path d="M112.615,445.905l-11.04-11.039c-0.499-0.5-1.174-0.775-1.883-0.775h-1.805c3.056-3.91,4.872-8.826,4.872-14.174
	c0-12.725-10.31-23.035-23.034-23.035c-12.723,0-23.033,10.311-23.033,23.035c0,12.723,10.31,23.033,23.033,23.033
	c5.349,0,10.266-1.816,14.175-4.873v1.805c0,0.709,0.276,1.385,0.775,1.883l11.04,11.041c1.041,1.041,2.725,1.041,3.754,0
	l3.134-3.135C113.645,448.629,113.645,446.946,112.615,445.905z M79.726,434.09c-7.829,0-14.174-6.334-14.174-14.174
	c0-7.83,6.334-14.176,14.174-14.176c7.83,0,14.175,6.334,14.175,14.176C93.901,427.744,87.567,434.09,79.726,434.09z"/>
</svg>
